<svg width="1024" height="1024" viewBox="0 0 1024 1024" fill="none" xmlns="http://www.w3.org/2000/svg">
<path d="M359.907 357.06C369.969 347.263 369.969 329.846 359.907 320.049L283.216 243.306C273.153 233.236 256.02 233.236 245.958 243.306C236.167 253.375 236.167 270.248 245.958 280.317L322.649 357.06C332.711 367.13 349.844 367.13 359.907 357.06Z" fill="black" fill-opacity="0.85" style="fill:black;fill-opacity:0.85;"/>
<path d="M295.997 511.365C295.997 497.214 284.031 484.966 269.618 484.966H161.38C146.966 484.966 135 497.214 135 511.365C135 525.516 146.966 537.49 161.38 537.49H269.618C284.031 537.49 295.997 525.516 295.997 511.365Z" fill="black" fill-opacity="0.85" style="fill:black;fill-opacity:0.85;"/>
<path d="M359.907 665.395C349.844 655.327 332.711 655.327 322.649 665.395L245.958 742.139C236.167 752.21 236.167 769.354 245.958 779.423C256.02 789.221 273.153 789.221 283.216 779.423L359.907 702.679C369.969 692.611 369.969 675.467 359.907 665.395Z" fill="black" fill-opacity="0.85" style="fill:black;fill-opacity:0.85;"/>
<path d="M513.833 729.348C499.691 729.348 487.725 741.322 487.725 755.746V864.058C487.725 878.482 499.691 890.457 513.833 890.457C527.974 890.457 540.213 878.482 540.213 864.058V755.746C540.213 741.322 527.974 729.348 513.833 729.348Z" fill="black" fill-opacity="0.85" style="fill:black;fill-opacity:0.85;"/>
<path d="M668.031 665.395C657.969 675.467 657.969 692.611 668.031 702.679L744.722 779.423C754.786 789.221 771.646 789.221 781.71 779.423C791.772 769.354 791.772 752.21 781.71 742.139L705.019 665.395C695.227 655.327 677.822 655.327 668.031 665.395Z" fill="black" fill-opacity="0.85" style="fill:black;fill-opacity:0.85;"/>
<path d="M731.94 511.365C731.94 525.516 743.906 537.49 758.047 537.49H866.558C880.699 537.49 892.938 525.516 892.938 511.365C892.938 497.214 880.699 484.966 866.558 484.966H758.047C743.906 484.966 731.94 497.214 731.94 511.365Z" fill="black" fill-opacity="0.85" style="fill:black;fill-opacity:0.85;"/>
<path d="M668.031 357.06C677.822 367.13 695.227 367.13 705.019 357.06L781.71 280.317C791.772 270.248 791.772 253.375 781.71 243.306C771.646 233.236 754.786 233.236 744.722 243.306L668.031 320.049C657.969 329.846 657.969 347.263 668.031 357.06Z" fill="black" fill-opacity="0.85" style="fill:black;fill-opacity:0.85;"/>
<path d="M513.833 293.107C527.974 293.107 540.213 281.133 540.213 266.982V158.398C540.213 144.246 527.974 132 513.833 132C499.691 132 487.725 144.246 487.725 158.398V266.982C487.725 281.133 499.691 293.107 513.833 293.107Z" fill="black" fill-opacity="0.85" style="fill:black;fill-opacity:0.85;"/>
</svg>
